<svg width="80" height="41" viewBox="0 0 80 41" fill="none" xmlns="http://www.w3.org/2000/svg">
<path d="M12.0155 5.14453C6.89925 8.86395 3.56053 14.4839 1.16016 20.2274C0.101221 22.7488 -0.456451 25.6305 0.468298 28.2818C1.54961 31.7615 4.4561 34.3029 7.60424 35.9307C10.8934 37.6703 14.4494 38.8863 18.0969 39.6029C20.6072 40.0755 23.2244 40.5097 25.7502 39.9253C27.1767 39.6185 28.5623 38.649 28.8939 37.1598C27.0401 37.574 25.1142 37.3995 23.2511 37.1398C19.9863 36.6405 16.771 35.7853 13.7304 34.493C11.3101 33.4744 8.93643 32.236 6.97511 30.4668C4.68219 28.3868 3.15747 25.3685 3.23574 22.2359C3.32764 20.7112 3.70152 19.2132 4.26357 17.7959C6.11987 13.1897 8.59852 8.77887 12.0155 5.14453Z" fill="black"/>
<path d="M40.0096 29.222C36.5814 28.2097 33.0793 27.2651 29.4833 27.1887C30.3721 28.2477 31.1515 29.4053 31.6936 30.684C35.8292 31.5796 39.8282 32.9837 43.7961 34.4345C48.0999 35.9437 52.2822 37.7684 56.5457 39.3831C59.3515 40.3506 62.3966 41.1183 65.359 40.4581C67.5576 39.9519 69.4027 38.4943 70.856 36.8194C69.9424 37.2268 69.0201 37.6454 68.0166 37.7733C64.5816 38.293 61.1714 37.1509 58.012 35.9058C52.0804 33.4986 46.1177 31.1454 40.0096 29.222Z" fill="black"/>
<path d="M4.26353 17.7959C6.11984 13.1901 8.59849 8.77885 12.0155 5.14451C14.0911 3.08206 16.5051 1.04245 19.4942 0.590285C21.4803 0.249946 23.7217 1.06482 24.7136 2.88563C25.8085 4.85377 25.5308 7.19822 25.2153 9.32971C29.8123 7.03242 34.2591 4.35444 39.1653 2.74658C45.1281 0.762885 51.4983 0.0369911 57.7503 0.670995C61.8008 1.08524 65.8513 1.86656 69.6403 3.39808C72.2288 4.47745 74.7546 5.93945 76.5501 8.1429C78.2655 10.2029 79.1498 12.8542 79.2884 15.5098C79.5101 19.6721 78.8027 23.8549 77.4681 27.7936C76.2434 31.3652 74.1454 34.8133 70.8558 36.8194C69.9422 37.2268 69.0199 37.6455 68.0164 37.7733C64.5814 38.2931 61.1712 37.151 58.0119 35.9058C52.0802 33.4987 46.1175 31.1455 40.0094 29.2221C36.5812 28.2098 33.0791 27.2651 29.4832 27.1888C30.3719 28.2477 31.1513 29.4054 31.6934 30.6841C32.2735 32.1038 32.5846 33.8098 31.7984 35.2159C31.2228 36.3021 30.0428 36.8816 28.8944 37.1593C27.0405 37.5735 25.1147 37.399 23.2515 37.1393C19.9867 36.64 16.7715 35.7848 13.7308 34.4925C11.3105 33.4739 8.93688 32.2355 6.97556 30.4662C4.68264 28.3863 3.15792 25.368 3.2362 22.2354C3.32761 20.7111 3.70149 19.2132 4.26353 17.7959Z" fill="#E5E3E3"/>
<path d="M53.9982 0.671927C49.2578 0.671927 44.5645 1.4338 40.0458 2.93713C36.4664 4.11033 33.0557 5.90294 29.7578 7.63673C28.5919 8.24983 27.3861 8.88334 26.1872 9.48283L25.0334 10.0595L25.2225 8.78367C25.5468 6.59578 25.7579 4.48908 24.7957 2.75918C24.1267 1.53201 22.6622 0.738537 21.0641 0.738537C20.7991 0.738537 20.5351 0.760901 20.2794 0.804659L20.273 0.805633L20.2667 0.806604C17.4531 1.23251 15.1004 3.24732 13.1692 5.16538C10.1061 8.42534 7.6168 12.4929 5.56017 17.5955C4.99327 19.0255 4.66314 20.4456 4.57903 21.8167C4.51387 24.5832 5.82856 27.4625 8.09716 29.5201C9.71718 30.9811 11.8035 32.2219 14.6652 33.4267C17.5182 34.6388 20.6674 35.5139 24.0163 36.0264C24.944 36.1557 26.0399 36.288 27.1382 36.288C27.9735 36.288 28.7183 36.2126 29.4141 36.0575C30.2601 35.8523 31.371 35.4074 31.8767 34.4535L31.8801 34.4467L31.884 34.4399C32.5875 33.1816 32.1956 31.5971 31.7469 30.4978C31.2767 29.3883 30.5878 28.3002 29.6406 27.1722L28.6882 26.0374L30.1696 26.0685C33.8706 26.1468 37.4859 27.1294 40.8718 28.129L40.8777 28.131L40.8835 28.1329C47.2182 30.1278 53.5237 32.6385 58.9307 34.8328C61.3243 35.776 64.1141 36.7819 66.9418 36.7819C67.5039 36.7819 68.0576 36.7411 68.5886 36.6609L68.5964 36.6594L68.6041 36.6584C69.4871 36.5461 70.317 36.1756 71.1956 35.7838L71.2145 35.7755C74.6957 33.6343 76.5564 29.8935 77.504 27.1294C78.8955 23.0225 79.4965 18.9744 79.2898 15.096C79.1508 12.4341 78.2328 9.95784 76.7013 8.11855C75.2247 6.30698 73.0504 4.81872 70.0603 3.5721C66.7522 2.23506 62.9229 1.35747 58.3546 0.890231C56.9174 0.74583 55.452 0.671927 53.9982 0.671927ZM53.9982 0C55.4748 0 56.9514 0.0739024 58.4217 0.222679C62.4722 0.636921 66.5227 1.41824 70.3117 2.94977C72.9002 4.02913 75.426 5.49113 77.2215 7.69459C78.9368 9.75461 79.8212 12.4059 79.9598 15.0615C80.1815 19.2238 79.4741 23.4066 78.1395 27.3453C76.9147 30.9169 74.8168 34.365 71.5272 36.3711C70.6136 36.7785 69.6913 37.1971 68.6878 37.325C68.1043 37.4135 67.5214 37.4534 66.9409 37.4534C64.1019 37.4534 61.3063 36.4907 58.6837 35.4575C52.7521 33.0504 46.7894 30.6972 40.6812 28.7737C37.2531 27.7615 33.751 26.8168 30.155 26.7405C31.0438 27.7994 31.8232 28.957 32.3653 30.2358C32.9453 31.6555 33.2565 33.3615 32.4708 34.7676C31.8951 35.8538 30.7151 36.4333 29.5667 36.7109C28.7674 36.8894 27.954 36.9589 27.1387 36.9589C26.0632 36.9589 24.9838 36.8388 23.9239 36.691C20.6591 36.1917 17.4439 35.3365 14.4032 34.0441C11.9829 33.0256 9.60924 31.7872 7.64791 30.0184C5.355 27.9385 3.83028 24.9196 3.90855 21.7876C4.00045 20.2628 4.37434 18.7649 4.93638 17.3476C6.79269 12.7418 9.27133 8.33053 12.6883 4.69668C14.7639 2.63423 17.1779 0.594621 20.1671 0.142456C20.4622 0.0918913 20.7636 0.0666098 21.0651 0.0666098C22.792 0.0666098 24.5419 0.8878 25.3864 2.43732C26.4813 4.40545 26.2037 6.7499 25.8882 8.8814C30.4852 6.58411 34.9319 3.90612 39.8377 2.29826C44.3973 0.781323 49.1965 0 53.9982 0Z" fill="black"/>
<path d="M20.7413 3.75634C19.1539 3.20547 17.4945 3.9197 16.1691 4.78416C14.7474 5.66613 13.7643 7.05471 12.7856 8.37572C12.5012 8.77002 12.1385 9.39236 12.5819 9.80854C13.1731 10.1353 13.6409 9.51731 13.9836 9.12786C15.0698 7.82485 16.1647 6.37841 17.8149 5.7692C18.5272 5.54069 19.4427 5.41768 20.0227 6.00209C20.6543 6.5442 20.5648 7.60995 21.3529 8.01058C22.0939 8.36648 22.9384 7.78012 23.0211 7.00512C23.3434 5.51395 22.1138 4.14821 20.7413 3.75634Z" fill="white"/>
<path d="M57.0176 4.44824C52.4901 4.05637 47.9111 4.30287 43.4482 5.16052C40.851 5.67784 38.2041 6.2287 35.8417 7.47824C35.3535 7.74905 34.7424 8.15016 34.8182 8.79486C34.9927 9.58105 35.9379 9.46679 36.5311 9.3078C42.2702 7.72036 48.2125 6.67017 54.1864 6.87827C58.7679 7.09317 63.4159 7.78503 67.6303 9.67488C68.8998 10.2928 70.2033 10.8393 71.5131 11.3654C71.9944 11.5331 72.7403 11.5871 72.9484 10.9983C73.1117 10.463 72.7179 10.0084 72.3124 9.72448C71.0629 8.8357 69.7934 7.95325 68.3669 7.37127C64.7651 5.82516 60.9227 4.80657 57.0176 4.44824Z" fill="white"/>
<path d="M32.4184 8.45158C31.5788 8.33732 30.7974 9.31118 31.1869 10.093C31.4869 11.0153 32.9557 10.9798 33.3009 10.1085C33.7239 9.43905 33.1866 8.49874 32.4184 8.45158Z" fill="white"/>
</svg>
