<svg width="80" height="41" viewBox="0 0 80 41" fill="none" xmlns="http://www.w3.org/2000/svg">
<path d="M67.9845 5.14453C73.1008 8.86395 76.4395 14.4839 78.8398 20.2274C79.8988 22.7488 80.4565 25.6305 79.5317 28.2818C78.4504 31.7615 75.5439 34.3029 72.3958 35.9307C69.1066 37.6703 65.5506 38.8863 61.9031 39.6029C59.3929 40.0755 56.7756 40.5097 54.2498 39.9253C52.8233 39.6185 51.4377 38.649 51.1061 37.1598C52.96 37.574 54.8858 37.3995 56.7489 37.1398C60.0137 36.6405 63.229 35.7853 66.2697 34.493C68.69 33.4744 71.0636 32.236 73.0249 30.4668C75.3178 28.3868 76.8425 25.3685 76.7643 22.2359C76.6724 20.7112 76.2985 19.2132 75.7364 17.7959C73.8801 13.1897 71.4015 8.77887 67.9845 5.14453Z" fill="black"/>
<path d="M39.9904 29.222C43.4186 28.2097 46.9207 27.2651 50.5167 27.1887C49.6279 28.2477 48.8485 29.4053 48.3064 30.684C44.1708 31.5796 40.1718 32.9837 36.2039 34.4345C31.9001 35.9437 27.7178 37.7684 23.4543 39.3831C20.6485 40.3506 17.6034 41.1183 14.641 40.4581C12.4424 39.9519 10.5973 38.4943 9.14404 36.8194C10.0576 37.2268 10.9799 37.6454 11.9834 37.7733C15.4184 38.293 18.8286 37.1509 21.988 35.9058C27.9196 33.4986 33.8823 31.1454 39.9904 29.222Z" fill="black"/>
<path d="M75.7365 17.7959C73.8802 13.1901 71.4015 8.77885 67.9845 5.14451C65.9089 3.08206 63.495 1.04245 60.5058 0.590285C58.5197 0.249946 56.2783 1.06482 55.2865 2.88563C54.1915 4.85377 54.4692 7.19822 54.7847 9.32971C50.1877 7.03242 45.7409 4.35444 40.8347 2.74658C34.8719 0.762885 28.5018 0.0369911 22.2497 0.670995C18.1992 1.08524 14.1487 1.86656 10.3597 3.39808C7.7712 4.47745 5.2454 5.93945 3.44987 8.1429C1.73456 10.2029 0.850159 12.8542 0.711593 15.5098C0.489886 19.6721 1.19731 23.8549 2.53192 27.7936C3.75666 31.3652 5.85461 34.8133 9.14423 36.8194C10.0578 37.2268 10.9801 37.6455 11.9836 37.7733C15.4186 38.2931 18.8288 37.151 21.9881 35.9058C27.9198 33.4987 33.8825 31.1455 39.9906 29.2221C43.4188 28.2098 46.9209 27.2651 50.5168 27.1888C49.6281 28.2477 48.8487 29.4054 48.3066 30.6841C47.7265 32.1038 47.4154 33.8098 48.2016 35.2159C48.7772 36.3021 49.9572 36.8816 51.1056 37.1593C52.9595 37.5735 54.8853 37.399 56.7485 37.1393C60.0133 36.64 63.2285 35.7848 66.2692 34.4925C68.6895 33.4739 71.0631 32.2355 73.0245 30.4662C75.3174 28.3863 76.8421 25.368 76.7638 22.2354C76.6724 20.7111 76.2985 19.2132 75.7365 17.7959Z" fill="#0398DC"/>
<path d="M26.0018 0.671927C30.7422 0.671927 35.4355 1.4338 39.9542 2.93713C43.5336 4.11033 46.9443 5.90294 50.2422 7.63673C51.4081 8.24983 52.6139 8.88334 53.8128 9.48283L54.9666 10.0595L54.7775 8.78367C54.4532 6.59578 54.2421 4.48908 55.2043 2.75918C55.8733 1.53201 57.3378 0.738537 58.9359 0.738537C59.2009 0.738537 59.4649 0.760901 59.7206 0.804659L59.727 0.805633L59.7333 0.806604C62.5469 1.23251 64.8996 3.24732 66.8308 5.16538C69.8939 8.42534 72.3832 12.4929 74.4398 17.5955C75.0067 19.0255 75.3369 20.4456 75.421 21.8167C75.4861 24.5832 74.1714 27.4625 71.9028 29.5201C70.2828 30.9811 68.1966 32.2219 65.3348 33.4267C62.4818 34.6388 59.3327 35.5139 55.9837 36.0264C55.0561 36.1557 53.9602 36.288 52.8618 36.288C52.0265 36.288 51.2817 36.2126 50.5859 36.0575C49.7399 35.8523 48.629 35.4074 48.1233 34.4535L48.1199 34.4467L48.116 34.4399C47.4125 33.1816 47.8044 31.5971 48.2532 30.4978C48.7233 29.3883 49.4123 28.3002 50.3594 27.1722L51.3118 26.0374L49.8304 26.0685C46.1294 26.1468 42.5141 27.1294 39.1282 28.129L39.1223 28.131L39.1165 28.1329C32.7818 30.1278 26.4763 32.6385 21.0693 34.8328C18.6757 35.776 15.8859 36.7819 13.0582 36.7819C12.4961 36.7819 11.9424 36.7411 11.4114 36.6609L11.4037 36.6594L11.3959 36.6584C10.5129 36.5461 9.68299 36.1756 8.80443 35.7838L8.78547 35.7755C5.30428 33.6343 3.4436 29.8935 2.496 27.1294C1.1045 23.0225 0.503554 18.9744 0.710189 15.096C0.849242 12.4341 1.76719 9.95784 3.29871 8.11855C4.7753 6.30698 6.94958 4.81872 9.9397 3.5721C13.2478 2.23506 17.0771 1.35747 21.6454 0.890231C23.0826 0.74583 24.548 0.671927 26.0018 0.671927ZM26.0018 0C24.5252 0 23.0486 0.0739024 21.5783 0.222679C17.5278 0.636921 13.4773 1.41824 9.68834 2.94977C7.09981 4.02913 4.57401 5.49113 2.77848 7.69459C1.06317 9.75461 0.178772 12.4059 0.0402057 15.0615C-0.181501 19.2238 0.52592 23.4066 1.86054 27.3453C3.08527 30.9169 5.18322 34.365 8.47284 36.3711C9.38641 36.7785 10.3087 37.1971 11.3122 37.325C11.8957 37.4135 12.4786 37.4534 13.0592 37.4534C15.8981 37.4534 18.6937 36.4907 21.3163 35.4575C27.2479 33.0504 33.2106 30.6972 39.3188 28.7737C42.7469 27.7615 46.249 26.8168 49.845 26.7405C48.9562 27.7994 48.1768 28.957 47.6347 30.2358C47.0547 31.6555 46.7435 33.3615 47.5292 34.7676C48.1049 35.8538 49.2849 36.4333 50.4333 36.7109C51.2326 36.8894 52.046 36.9589 52.8613 36.9589C53.9368 36.9589 55.0162 36.8388 56.0761 36.691C59.3409 36.1917 62.5562 35.3365 65.5968 34.0441C68.0171 33.0256 70.3908 31.7872 72.3521 30.0184C74.645 27.9385 76.1697 24.9196 76.0915 21.7876C75.9996 20.2628 75.6257 18.7649 75.0636 17.3476C73.2073 12.7418 70.7287 8.33053 67.3117 4.69668C65.2361 2.63423 62.8221 0.594621 59.833 0.142456C59.5378 0.0918913 59.2364 0.0666098 58.9349 0.0666098C57.208 0.0666098 55.4581 0.8878 54.6136 2.43732C53.5187 4.40545 53.7963 6.7499 54.1119 8.8814C49.5148 6.58411 45.0681 3.90612 40.1623 2.29826C35.6027 0.781323 30.8035 0 26.0018 0Z" fill="black"/>
<path d="M59.2587 3.75634C60.8461 3.20547 62.5055 3.9197 63.8309 4.78416C65.2526 5.66613 66.2357 7.05471 67.2144 8.37572C67.4988 8.77002 67.8615 9.39236 67.4181 9.80854C66.8269 10.1353 66.3592 9.51731 66.0164 9.12786C64.9302 7.82485 63.8353 6.37841 62.1851 5.7692C61.4729 5.54069 60.5573 5.41768 59.9773 6.00209C59.3457 6.5442 59.4352 7.60995 58.6471 8.01058C57.9061 8.36648 57.0616 7.78012 56.9789 7.00512C56.6566 5.51395 57.8862 4.14821 59.2587 3.75634Z" fill="white"/>
<path d="M22.9824 4.44824C27.5099 4.05637 32.089 4.30287 36.5518 5.16052C39.1491 5.67784 41.7959 6.2287 44.1584 7.47824C44.6465 7.74905 45.2577 8.15016 45.1818 8.79486C45.0073 9.58105 44.0621 9.46679 43.4689 9.3078C37.7298 7.72036 31.7875 6.67017 25.8136 6.87827C21.2321 7.09317 16.5841 7.78503 12.3697 9.67488C11.1002 10.2928 9.79673 10.8393 8.48691 11.3654C8.00557 11.5331 7.25975 11.5871 7.05165 10.9983C6.88829 10.463 7.28211 10.0084 7.6876 9.72448C8.93713 8.8357 10.2066 7.95325 11.6331 7.37127C15.2349 5.82516 19.0773 4.80657 22.9824 4.44824Z" fill="white"/>
<path d="M47.5816 8.45158C48.4213 8.33732 49.2026 9.31118 48.8131 10.093C48.5131 11.0153 47.0443 10.9798 46.6991 10.1085C46.2761 9.43905 46.8134 8.49874 47.5816 8.45158Z" fill="white"/>
</svg>
