<svg width="24" height="25" viewBox="0 0 24 25" fill="none" xmlns="http://www.w3.org/2000/svg">
<path d="M7.3677 6.01873C7.3677 6.01873 11.463 -7.52341 16.7596 6.01873C30.8478 6.34625 20.036 15.1378 20.036 15.1378C20.036 15.1378 24.4591 30.0449 12.2819 21.3083C-3.70271e-05 29.4991 3.8182 15.3563 3.8182 15.3563C-6.50197 6.07336 7.3677 6.01873 7.3677 6.01873Z" fill="url(#paint0_linear_175_2555)"/>
<path d="M7.61839 6.34404C7.61839 6.34404 11.4921 -6.46457 16.502 6.34404C29.8273 6.65381 19.6009 14.9692 19.6009 14.9692C19.6009 14.9692 23.7843 29.069 12.2669 20.8055C0.650006 28.5526 4.26163 15.1758 4.26163 15.1758C-5.49999 6.39561 7.61839 6.34404 7.61839 6.34404Z" fill="#FFF688"/>
<path d="M7.72269 6.83352C7.72269 6.83352 11.5043 -5.05131 16.3953 6.83352C29.4041 7.12111 19.4206 14.8366 19.4206 14.8366C19.4206 14.8366 23.5048 27.9195 12.2606 20.252C0.919315 27.4403 4.44525 15.0285 4.44525 15.0285C-5.08453 6.88151 7.72269 6.83352 7.72269 6.83352Z" fill="url(#paint1_linear_175_2555)"/>
<g opacity="0.2">
<path d="M13.2736 2.00443C10.5866 0.142735 8.58431 4.54724 7.94202 6.22119C9.82839 4.68507 11.7067 3.19139 13.2736 2.00443Z" fill="#FFF688"/>
<path d="M19.9817 7.19709C19.0493 6.99519 17.8718 6.86596 16.3953 6.83351C16.2289 6.42944 16.0641 6.05533 15.9005 5.70479C13.7693 6.84072 11.5648 8.17466 10.435 9.33999C9.04583 10.7724 6.42398 13.4808 4.28357 15.6922C4.03453 16.8306 3.64628 19.1876 4.24308 20.8047C6.57651 19.6588 10.3174 17.725 12.0002 16.3256C14.5397 14.214 18.313 9.82864 19.9817 7.19709Z" fill="#FFF688"/>
<path d="M22.3483 8.1991C21.9296 8.69135 21.5696 9.1237 21.3463 9.42127C20.3971 10.687 18.2331 15.3511 16.6897 17.8689C15.9693 19.0445 14.8591 20.2201 13.7728 21.2138C23.1223 26.6948 19.4206 14.8364 19.4206 14.8364C19.4206 14.8364 25.0459 10.4887 22.3483 8.1991Z" fill="#FFF688"/>
<path d="M7.16857 6.85265C5.25391 6.95442 -0.848388 7.59949 1.42042 11.664C3.01256 10.299 5.06921 8.57263 7.16857 6.85265Z" fill="#FFF688"/>
</g>
<path d="M2.48975 7.35987C2.48975 7.35987 4.52006 6.30492 7.61835 6.34402C8.78978 2.43538 10.5014 1.24925 10.5014 1.24925C10.5014 1.24925 8.85883 2.59068 7.69323 6.61857C5.15957 6.54369 2.48975 7.35987 2.48975 7.35987Z" fill="white"/>
<path opacity="0.3" d="M12.255 20.2517C12.255 20.2517 7.22901 23.7368 5.07141 22.0077C7.5166 22.9592 12.255 19.7913 12.255 19.7913V20.2517Z" fill="white"/>
<path d="M15.0461 3.91271C15.3539 4.70753 15.1514 5.52702 14.5937 5.74306C14.036 5.9591 13.3341 5.48986 13.0263 4.69505C12.7185 3.90023 12.9209 3.08072 13.4789 2.86469C14.0363 2.64865 14.738 3.11789 15.0461 3.91271Z" fill="white"/>
<path d="M16.1345 6.66627C16.1345 6.99906 15.8647 7.26862 15.5322 7.26862C15.1994 7.26862 14.9298 6.99879 14.9298 6.66627C14.9298 6.33348 15.1996 6.06392 15.5322 6.06392C15.8647 6.06364 16.1345 6.33348 16.1345 6.66627Z" fill="white"/>
<defs>
<linearGradient id="paint0_linear_175_2555" x1="12" y1="4.62211e-05" x2="12" y2="24.0538" gradientUnits="userSpaceOnUse">
<stop stop-color="#F8FF94"/>
<stop offset="0.2251" stop-color="#E9C200"/>
<stop offset="0.6073" stop-color="#DD8E00"/>
<stop offset="1" stop-color="#AA6300"/>
</linearGradient>
<linearGradient id="paint1_linear_175_2555" x1="12" y1="1.55128" x2="12" y2="22.6614" gradientUnits="userSpaceOnUse">
<stop stop-color="#F8FF94"/>
<stop offset="0.3194" stop-color="#FFE000"/>
<stop offset="0.7016" stop-color="#FFA400"/>
<stop offset="1" stop-color="#D4A900"/>
</linearGradient>
</defs>
</svg>
