<svg width="24" height="24" viewBox="0 0 24 24" fill="none" xmlns="http://www.w3.org/2000/svg">
<path d="M23.9024 9.16557C23.7802 8.643 23.527 8.16047 23.1504 7.73132C21.6641 6.03843 18.8356 5.7673 16.9013 5.80818C16.4044 4.36439 15.5283 2.32518 14.2211 1.00997C13.555 0.339764 12.8078 0 12 0C11.1922 0 10.445 0.339764 9.77873 1.00997C8.47175 2.32518 7.5956 4.36439 7.09867 5.80818C5.16258 5.76835 2.33606 6.03864 0.850383 7.7311C0.473405 8.16004 0.220046 8.64279 0.0974462 9.16557H0.0976509C-0.0932861 9.96329 -0.438238 12.9186 3.87722 15.7348C3.36194 17.3182 2.88847 19.6423 3.55451 21.7349C3.64039 22.0054 3.78686 22.4 4.0806 22.7877C4.12997 22.8552 4.18321 22.9194 4.23992 22.98C4.79988 23.6053 5.56995 23.9682 6.38592 23.9925C6.44733 23.9968 6.51893 23.9995 6.60073 23.9995C7.42261 23.9995 9.26691 23.7104 11.9998 21.6682C15.004 23.9131 16.9342 24.0393 17.6135 23.9925C18.4243 23.9686 19.1901 23.61 19.7493 22.9917C19.8111 22.9268 19.8684 22.8576 19.9216 22.7845C20.2129 22.3988 20.3588 22.0063 20.4451 21.7355C21.1111 19.6425 20.6377 17.3182 20.1226 15.7348C24.4382 12.9186 24.0931 9.96329 23.9024 9.16557Z" fill="#CECECE"/>
<path d="M0.0979561 9.16562C-0.0929809 9.96334 -0.437932 12.9187 3.87753 15.7349C3.36224 17.3182 2.88878 19.6424 3.55481 21.735C3.64069 22.0055 3.78716 22.4001 4.08091 22.7877C4.13028 22.8553 4.18352 22.9195 4.24023 22.9801C4.42729 23.1889 4.63924 23.3654 4.8671 23.513C2.042 19.6117 5.37259 15.2053 5.37259 15.2053C0.407209 13.4601 0.0979561 9.16562 0.0979561 9.16562Z" fill="#D7D7D7"/>
<path d="M20.123 15.7348C24.4382 12.9186 24.0933 9.96323 23.9024 9.16551H23.9026C23.7802 8.64294 23.5272 8.16041 23.1504 7.73147C22.4444 6.92718 21.4347 6.44655 20.3627 6.16504C12.3307 6.16737 5.53079 12.0766 3.23016 19.634C3.242 20.3364 3.33624 21.0481 3.55492 21.7353C3.6408 22.0058 3.78727 22.4004 4.08102 22.788C4.13038 22.8556 4.18362 22.9198 4.24033 22.9804C4.80029 23.6057 5.57036 23.9685 6.38633 23.9929C6.44774 23.9971 6.51934 23.9999 6.60114 23.9999C7.42302 23.9999 9.26732 23.7107 12.0002 21.6686C15.0044 23.9134 16.9346 24.0399 17.6139 23.9929C18.4247 23.9689 19.1905 23.6103 19.7497 22.992C19.8115 22.9272 19.8688 22.8579 19.9221 22.7849C20.2134 22.3991 20.3592 22.0066 20.4455 21.7359C21.1115 19.6425 20.6381 17.3181 20.123 15.7348Z" fill="#D7D7D7"/>
<path d="M23.2519 12.6507C17.1034 13.4603 11.9067 17.7152 9.26886 23.3198C10.0453 22.9697 10.9575 22.4471 11.9999 21.668C15.0041 23.9129 16.9343 24.0394 17.6136 23.9923C18.4245 23.9684 19.1902 23.6098 19.7494 22.9915C19.8112 22.9267 19.8685 22.8574 19.9218 22.7843C20.2131 22.3986 20.3589 22.0061 20.4452 21.7354C21.1112 19.6424 20.6378 17.318 20.1227 15.7347C21.7289 14.6866 22.6887 13.6192 23.2519 12.6507Z" fill="#ACACAC"/>
<path d="M16.5397 20.9831C13.5449 21.6141 12.0003 18.8539 12.0003 18.8539C12.0003 18.8539 8.69231 22.9408 6.05693 21.6593C3.42155 20.3777 3.5623 17.0623 3.5623 17.0623L3.50641 17.0926C3.1943 18.5029 3.06089 20.1824 3.55496 21.7349C3.64084 22.0054 3.78731 22.4 4.08106 22.7876C4.13042 22.8552 4.18367 22.9194 4.24038 22.98C4.80033 23.6053 5.57041 23.9681 6.38638 23.9925C6.44778 23.9967 6.51938 23.9995 6.60118 23.9995C7.42307 23.9995 9.26736 23.7103 12.0003 21.6682C15.0044 23.913 16.9346 24.0395 17.6139 23.9925C18.4248 23.9685 19.1906 23.6099 19.7497 22.9916C19.8115 22.9268 19.8689 22.8575 19.9221 22.7845C20.2134 22.3987 20.3593 22.0062 20.4455 21.7355C21.1042 19.6656 20.6485 17.3709 20.14 15.7888L18.6278 15.2052C18.6278 15.2052 19.5345 20.3523 16.5397 20.9831Z" fill="#ACACAC"/>
<path d="M9.77882 1.00997C8.47184 2.32518 7.59569 4.36439 7.09876 5.80818C5.16267 5.76835 2.33615 6.03864 0.850473 7.7311C0.804779 7.783 0.766836 7.83829 0.724609 7.89188C0.970624 7.68599 3.57031 5.62834 7.85517 6.79718C7.85517 6.79718 8.35311 1.41286 12.0001 9.89211e-08C11.1923 -0.000211724 10.4449 0.339764 9.77882 1.00997Z" fill="#D7D7D7"/>
<path d="M14.2213 1.00997C15.5283 2.32518 16.4044 4.36439 16.9013 5.80818C18.8374 5.76835 21.6639 6.03864 23.1496 7.7311C23.1953 7.783 23.2335 7.83829 23.2755 7.89188C23.0295 7.68599 20.4298 5.62834 16.1449 6.79718C16.1449 6.79718 15.647 1.41286 12 9.89211e-08C12.8078 -0.000211724 13.5552 0.339764 14.2213 1.00997Z" fill="#D7D7D7"/>
<path d="M23.9024 9.16562C24.0931 9.96334 24.4382 12.9187 20.1228 15.7349C20.6381 17.3182 21.1115 19.6424 20.4455 21.735C20.3596 22.0055 20.2132 22.4001 19.9194 22.7877C19.87 22.8553 19.8168 22.9195 19.7601 22.9801C19.573 23.1889 19.3611 23.3654 19.1334 23.513C21.9585 19.6117 18.6279 15.2053 18.6279 15.2053C23.5929 13.4601 23.9024 9.16562 23.9024 9.16562Z" fill="#5B5B5B"/>
<path d="M12 18.8539C12 22.4524 6.09173 23.954 6.05664 23.9627C6.16537 23.9783 6.27512 23.9889 6.38609 23.9923C6.44749 23.9965 6.51909 23.9993 6.60089 23.9993C7.42278 23.9993 9.26708 23.7102 12 21.668C15.0042 23.9129 16.9343 24.0393 17.6136 23.9923C17.7246 23.9891 17.8344 23.9781 17.9431 23.9627C17.9015 23.9523 12 22.4504 12 18.8539Z" fill="#676665"/>
<path d="M14.0683 2.95985C14.0683 3.52372 13.1424 2.95985 12 2.95985C10.8579 2.95985 9.93195 3.52372 9.93195 2.95985C9.93195 2.39598 10.8579 0.918304 12 0.918304C13.1424 0.918304 14.0683 2.39619 14.0683 2.95985Z" fill="#EFEFEF"/>
<path d="M4.10515 7.80071C4.57127 8.08964 3.63066 8.6264 3.0452 9.64484C2.45974 10.6633 2.45158 11.7779 1.98526 11.489C1.51913 11.2 0.771501 9.61709 1.35696 8.59865C1.94242 7.57999 3.63902 7.51179 4.10515 7.80071Z" fill="#EFEFEF"/>
</svg>
